G04 EAGLE Gerber RS-274X export*
G75*
%MOMM*%
%FSLAX34Y34*%
%LPD*%
%INSolderpaste Bottom*%
%IPPOS*%
%AMOC8*
5,1,8,0,0,1.08239X$1,22.5*%
G01*
%ADD10R,1.300000X1.500000*%
%ADD11R,1.500000X1.300000*%
%ADD12R,1.450000X1.100000*%
%ADD13R,0.450000X1.475000*%
%ADD14R,0.660400X2.032000*%
%ADD15R,2.032000X0.660400*%
%ADD16R,1.400000X1.000000*%
%ADD17R,0.355600X1.117600*%
%ADD18R,0.533400X1.701800*%


D10*
X567300Y832400D03*
X586300Y832400D03*
X397100Y856800D03*
X416100Y856800D03*
D11*
X363300Y717800D03*
X363300Y736800D03*
X457700Y608700D03*
X457700Y589700D03*
D12*
X558800Y280500D03*
X558800Y262500D03*
X894000Y279000D03*
X894000Y261000D03*
X932000Y278400D03*
X932000Y260400D03*
X970000Y279300D03*
X970000Y261300D03*
X970000Y325800D03*
X970000Y343800D03*
X932000Y324900D03*
X932000Y342900D03*
X894000Y326000D03*
X894000Y344000D03*
X858000Y325100D03*
X858000Y343100D03*
X818000Y324200D03*
X818000Y342200D03*
X780000Y325300D03*
X780000Y343300D03*
X742000Y324400D03*
X742000Y342400D03*
X596800Y281400D03*
X596800Y263400D03*
X706000Y325500D03*
X706000Y343500D03*
X668800Y326500D03*
X668800Y344500D03*
X632800Y325600D03*
X632800Y343600D03*
X596800Y326700D03*
X596800Y344700D03*
X558800Y325800D03*
X558800Y343800D03*
X514800Y326900D03*
X514800Y344900D03*
X632800Y280300D03*
X632800Y262300D03*
X668800Y279200D03*
X668800Y261200D03*
X704800Y280100D03*
X704800Y262100D03*
X742800Y281000D03*
X742800Y263000D03*
X778800Y279900D03*
X778800Y261900D03*
X816800Y278800D03*
X816800Y260800D03*
X856800Y279700D03*
X856800Y261700D03*
D13*
X346950Y636020D03*
X340450Y636020D03*
X333950Y636020D03*
X327450Y636020D03*
X320950Y636020D03*
X314450Y636020D03*
X307950Y636020D03*
X301450Y636020D03*
X294950Y636020D03*
X288450Y636020D03*
X281950Y636020D03*
X275450Y636020D03*
X275450Y694780D03*
X281950Y694780D03*
X288450Y694780D03*
X294950Y694780D03*
X301450Y694780D03*
X307950Y694780D03*
X314450Y694780D03*
X320950Y694780D03*
X327450Y694780D03*
X333950Y694780D03*
X340450Y694780D03*
X346950Y694780D03*
D14*
X367300Y791666D03*
X367300Y853134D03*
X354600Y791666D03*
X341900Y791666D03*
X354600Y853134D03*
X341900Y853134D03*
X329200Y791666D03*
X329200Y853134D03*
X316500Y791666D03*
X303800Y791666D03*
X316500Y853134D03*
X303800Y853134D03*
X291100Y791666D03*
X291100Y853134D03*
D15*
X399066Y631400D03*
X460534Y631400D03*
X399066Y644100D03*
X399066Y656800D03*
X460534Y644100D03*
X460534Y656800D03*
X399066Y669500D03*
X460534Y669500D03*
X399066Y682200D03*
X399066Y694900D03*
X460534Y682200D03*
X460534Y694900D03*
X399066Y707600D03*
X460534Y707600D03*
D16*
X647300Y515100D03*
X647300Y496100D03*
X625300Y505600D03*
X593300Y515400D03*
X593300Y496400D03*
X571300Y505900D03*
X539300Y515700D03*
X539300Y496700D03*
X517300Y506200D03*
X485300Y514000D03*
X485300Y495000D03*
X463300Y504500D03*
X431300Y514300D03*
X431300Y495300D03*
X409300Y504800D03*
X377300Y514600D03*
X377300Y495600D03*
X355300Y505100D03*
X321300Y512900D03*
X321300Y493900D03*
X299300Y503400D03*
X267300Y513200D03*
X267300Y494200D03*
X245300Y503700D03*
X213500Y511100D03*
X213500Y492100D03*
X191500Y501600D03*
X163500Y511400D03*
X163500Y492400D03*
X141500Y501900D03*
X107500Y509700D03*
X107500Y490700D03*
X85500Y500200D03*
X53500Y512000D03*
X53500Y493000D03*
X31500Y502500D03*
D11*
X647200Y557100D03*
X647200Y538100D03*
X593200Y557600D03*
X593200Y538600D03*
X539700Y556600D03*
X539700Y537600D03*
X485700Y558100D03*
X485700Y539100D03*
X432300Y557400D03*
X432300Y538400D03*
X377700Y557100D03*
X377700Y538100D03*
X321700Y556600D03*
X321700Y537600D03*
X267700Y556100D03*
X267700Y537100D03*
X213700Y555600D03*
X213700Y536600D03*
X163700Y556100D03*
X163700Y537100D03*
X106700Y555600D03*
X106700Y536600D03*
X53700Y556100D03*
X53700Y537100D03*
X559300Y227100D03*
X559300Y208100D03*
X597300Y226600D03*
X597300Y207600D03*
X633300Y226100D03*
X633300Y207100D03*
X669300Y225600D03*
X669300Y206600D03*
X705800Y224600D03*
X705800Y205600D03*
X741800Y224100D03*
X741800Y205100D03*
X779800Y223600D03*
X779800Y204600D03*
X817800Y223100D03*
X817800Y204100D03*
X855800Y222600D03*
X855800Y203600D03*
X893800Y222100D03*
X893800Y203100D03*
X931800Y221600D03*
X931800Y202600D03*
X969800Y221100D03*
X969800Y202100D03*
X970200Y379400D03*
X970200Y398400D03*
X932200Y379900D03*
X932200Y398900D03*
X894200Y380400D03*
X894200Y399400D03*
X858200Y380900D03*
X858200Y399900D03*
X818200Y381400D03*
X818200Y400400D03*
X780200Y381900D03*
X780200Y400900D03*
X742200Y382400D03*
X742200Y401400D03*
X705700Y381400D03*
X705700Y400400D03*
X667700Y381900D03*
X667700Y400900D03*
X633700Y382400D03*
X633700Y401400D03*
X597700Y382900D03*
X597700Y401900D03*
X559700Y383400D03*
X559700Y402400D03*
X513700Y381900D03*
X513700Y400900D03*
D17*
X343504Y729748D03*
X336900Y729748D03*
X330296Y729748D03*
X330296Y749052D03*
X336900Y749052D03*
X343504Y749052D03*
D18*
X515200Y768792D03*
X502500Y768792D03*
X489800Y768792D03*
X477100Y768792D03*
X464400Y768792D03*
X451700Y768792D03*
X439000Y768792D03*
X439000Y820608D03*
X451700Y820608D03*
X464400Y820608D03*
X477100Y820608D03*
X489800Y820608D03*
X502500Y820608D03*
X515200Y820608D03*
M02*
