G04 EAGLE Gerber RS-274X export*
G75*
%MOMM*%
%FSLAX34Y34*%
%LPD*%
%INSoldermask Bottom*%
%IPPOS*%
%AMOC8*
5,1,8,0,0,1.08239X$1,22.5*%
G01*
%ADD10C,2.803200*%
%ADD11P,1.451614X8X22.500000*%
%ADD12R,1.503200X1.703200*%
%ADD13R,1.703200X1.503200*%
%ADD14R,1.653200X1.303200*%
%ADD15R,0.653200X1.678200*%
%ADD16R,0.863600X2.235200*%
%ADD17R,2.235200X0.863600*%
%ADD18C,0.903200*%
%ADD19C,0.853200*%
%ADD20R,1.603200X1.203200*%
%ADD21C,1.625600*%
%ADD22C,1.743200*%
%ADD23R,0.558800X1.320800*%
%ADD24R,0.736600X1.905000*%
%ADD25C,1.203200*%
%ADD26C,1.503200*%
%ADD27C,1.767838*%
%ADD28P,4.343848X8X22.500000*%
%ADD29C,0.959600*%

G36*
X100018Y60176D02*
X100018Y60176D01*
X100024Y60182D01*
X100029Y60179D01*
X101086Y60549D01*
X101090Y60556D01*
X101096Y60553D01*
X102044Y61149D01*
X102047Y61157D01*
X102052Y61156D01*
X102844Y61948D01*
X102845Y61956D01*
X102851Y61956D01*
X103447Y62904D01*
X103446Y62913D01*
X103451Y62914D01*
X103821Y63971D01*
X103820Y63975D01*
X103822Y63977D01*
X103820Y63980D01*
X103824Y63982D01*
X103949Y65095D01*
X103947Y65098D01*
X103949Y65100D01*
X103949Y71100D01*
X103947Y71103D01*
X103949Y71106D01*
X103824Y72218D01*
X103818Y72224D01*
X103821Y72229D01*
X103451Y73286D01*
X103445Y73290D01*
X103447Y73296D01*
X102851Y74244D01*
X102843Y74247D01*
X102844Y74252D01*
X102052Y75044D01*
X102044Y75045D01*
X102044Y75051D01*
X101096Y75647D01*
X101087Y75646D01*
X101086Y75651D01*
X100029Y76021D01*
X100021Y76019D01*
X100018Y76024D01*
X98906Y76149D01*
X98898Y76145D01*
X98895Y76149D01*
X97782Y76024D01*
X97776Y76018D01*
X97771Y76021D01*
X96714Y75651D01*
X96710Y75645D01*
X96704Y75647D01*
X95756Y75051D01*
X95753Y75043D01*
X95748Y75044D01*
X94956Y74252D01*
X94955Y74244D01*
X94949Y74244D01*
X94353Y73296D01*
X94354Y73287D01*
X94349Y73286D01*
X93979Y72229D01*
X93981Y72221D01*
X93976Y72218D01*
X93851Y71106D01*
X93853Y71102D01*
X93851Y71100D01*
X93851Y65100D01*
X93853Y65097D01*
X93851Y65095D01*
X93976Y63982D01*
X93982Y63976D01*
X93979Y63971D01*
X94349Y62914D01*
X94356Y62910D01*
X94353Y62904D01*
X94949Y61956D01*
X94957Y61953D01*
X94956Y61948D01*
X95748Y61156D01*
X95756Y61155D01*
X95756Y61149D01*
X96704Y60553D01*
X96713Y60554D01*
X96714Y60549D01*
X97771Y60179D01*
X97779Y60181D01*
X97782Y60176D01*
X98895Y60051D01*
X98902Y60055D01*
X98906Y60051D01*
X100018Y60176D01*
G37*
G36*
X182618Y60176D02*
X182618Y60176D01*
X182624Y60182D01*
X182629Y60179D01*
X183686Y60549D01*
X183690Y60556D01*
X183696Y60553D01*
X184644Y61149D01*
X184647Y61157D01*
X184652Y61156D01*
X185444Y61948D01*
X185445Y61956D01*
X185451Y61956D01*
X186047Y62904D01*
X186046Y62913D01*
X186051Y62914D01*
X186421Y63971D01*
X186420Y63975D01*
X186422Y63977D01*
X186420Y63980D01*
X186424Y63982D01*
X186549Y65095D01*
X186547Y65098D01*
X186549Y65100D01*
X186549Y71100D01*
X186547Y71103D01*
X186549Y71106D01*
X186424Y72218D01*
X186418Y72224D01*
X186421Y72229D01*
X186051Y73286D01*
X186045Y73290D01*
X186047Y73296D01*
X185451Y74244D01*
X185443Y74247D01*
X185444Y74252D01*
X184652Y75044D01*
X184644Y75045D01*
X184644Y75051D01*
X183696Y75647D01*
X183687Y75646D01*
X183686Y75651D01*
X182629Y76021D01*
X182621Y76019D01*
X182618Y76024D01*
X181506Y76149D01*
X181498Y76145D01*
X181495Y76149D01*
X180382Y76024D01*
X180376Y76018D01*
X180371Y76021D01*
X179314Y75651D01*
X179310Y75645D01*
X179304Y75647D01*
X178356Y75051D01*
X178353Y75043D01*
X178348Y75044D01*
X177556Y74252D01*
X177555Y74244D01*
X177549Y74244D01*
X176953Y73296D01*
X176954Y73287D01*
X176949Y73286D01*
X176579Y72229D01*
X176581Y72221D01*
X176576Y72218D01*
X176451Y71106D01*
X176453Y71102D01*
X176451Y71100D01*
X176451Y65100D01*
X176453Y65097D01*
X176451Y65095D01*
X176576Y63982D01*
X176582Y63976D01*
X176579Y63971D01*
X176949Y62914D01*
X176956Y62910D01*
X176953Y62904D01*
X177549Y61956D01*
X177557Y61953D01*
X177556Y61948D01*
X178348Y61156D01*
X178356Y61155D01*
X178356Y61149D01*
X179304Y60553D01*
X179313Y60554D01*
X179314Y60549D01*
X180371Y60179D01*
X180379Y60181D01*
X180382Y60176D01*
X181495Y60051D01*
X181502Y60055D01*
X181506Y60051D01*
X182618Y60176D01*
G37*
G36*
X888318Y20176D02*
X888318Y20176D01*
X888324Y20182D01*
X888329Y20179D01*
X889386Y20549D01*
X889390Y20556D01*
X889396Y20553D01*
X890344Y21149D01*
X890347Y21157D01*
X890352Y21156D01*
X891144Y21948D01*
X891145Y21956D01*
X891151Y21956D01*
X891747Y22904D01*
X891746Y22913D01*
X891751Y22914D01*
X892121Y23971D01*
X892120Y23975D01*
X892122Y23977D01*
X892120Y23980D01*
X892124Y23982D01*
X892249Y25095D01*
X892247Y25098D01*
X892249Y25100D01*
X892249Y31100D01*
X892247Y31103D01*
X892249Y31106D01*
X892124Y32218D01*
X892118Y32224D01*
X892121Y32229D01*
X891751Y33286D01*
X891745Y33290D01*
X891747Y33296D01*
X891151Y34244D01*
X891143Y34247D01*
X891144Y34252D01*
X890352Y35044D01*
X890344Y35045D01*
X890344Y35051D01*
X889396Y35647D01*
X889387Y35646D01*
X889386Y35651D01*
X888329Y36021D01*
X888321Y36019D01*
X888318Y36024D01*
X887206Y36149D01*
X887198Y36145D01*
X887195Y36149D01*
X886082Y36024D01*
X886076Y36018D01*
X886071Y36021D01*
X885014Y35651D01*
X885010Y35645D01*
X885004Y35647D01*
X884056Y35051D01*
X884053Y35043D01*
X884048Y35044D01*
X883256Y34252D01*
X883255Y34244D01*
X883249Y34244D01*
X882653Y33296D01*
X882654Y33287D01*
X882649Y33286D01*
X882279Y32229D01*
X882281Y32221D01*
X882276Y32218D01*
X882151Y31106D01*
X882153Y31102D01*
X882151Y31100D01*
X882151Y25100D01*
X882153Y25097D01*
X882151Y25095D01*
X882276Y23982D01*
X882282Y23976D01*
X882279Y23971D01*
X882649Y22914D01*
X882656Y22910D01*
X882653Y22904D01*
X883249Y21956D01*
X883257Y21953D01*
X883256Y21948D01*
X884048Y21156D01*
X884056Y21155D01*
X884056Y21149D01*
X885004Y20553D01*
X885013Y20554D01*
X885014Y20549D01*
X886071Y20179D01*
X886079Y20181D01*
X886082Y20176D01*
X887195Y20051D01*
X887202Y20055D01*
X887206Y20051D01*
X888318Y20176D01*
G37*
G36*
X798518Y20176D02*
X798518Y20176D01*
X798524Y20182D01*
X798529Y20179D01*
X799586Y20549D01*
X799590Y20556D01*
X799596Y20553D01*
X800544Y21149D01*
X800547Y21157D01*
X800552Y21156D01*
X801344Y21948D01*
X801345Y21956D01*
X801351Y21956D01*
X801947Y22904D01*
X801946Y22913D01*
X801951Y22914D01*
X802321Y23971D01*
X802320Y23975D01*
X802322Y23977D01*
X802320Y23980D01*
X802324Y23982D01*
X802449Y25095D01*
X802447Y25098D01*
X802449Y25100D01*
X802449Y31100D01*
X802447Y31103D01*
X802449Y31106D01*
X802324Y32218D01*
X802318Y32224D01*
X802321Y32229D01*
X801951Y33286D01*
X801945Y33290D01*
X801947Y33296D01*
X801351Y34244D01*
X801343Y34247D01*
X801344Y34252D01*
X800552Y35044D01*
X800544Y35045D01*
X800544Y35051D01*
X799596Y35647D01*
X799587Y35646D01*
X799586Y35651D01*
X798529Y36021D01*
X798521Y36019D01*
X798518Y36024D01*
X797406Y36149D01*
X797398Y36145D01*
X797395Y36149D01*
X796282Y36024D01*
X796276Y36018D01*
X796271Y36021D01*
X795214Y35651D01*
X795210Y35645D01*
X795204Y35647D01*
X794256Y35051D01*
X794253Y35043D01*
X794248Y35044D01*
X793456Y34252D01*
X793455Y34244D01*
X793449Y34244D01*
X792853Y33296D01*
X792854Y33287D01*
X792849Y33286D01*
X792479Y32229D01*
X792481Y32221D01*
X792476Y32218D01*
X792351Y31106D01*
X792353Y31102D01*
X792351Y31100D01*
X792351Y25100D01*
X792353Y25097D01*
X792351Y25095D01*
X792476Y23982D01*
X792482Y23976D01*
X792479Y23971D01*
X792849Y22914D01*
X792856Y22910D01*
X792853Y22904D01*
X793449Y21956D01*
X793457Y21953D01*
X793456Y21948D01*
X794248Y21156D01*
X794256Y21155D01*
X794256Y21149D01*
X795204Y20553D01*
X795213Y20554D01*
X795214Y20549D01*
X796271Y20179D01*
X796279Y20181D01*
X796282Y20176D01*
X797395Y20051D01*
X797402Y20055D01*
X797406Y20051D01*
X798518Y20176D01*
G37*
G36*
X186218Y16176D02*
X186218Y16176D01*
X186224Y16182D01*
X186229Y16179D01*
X187286Y16549D01*
X187290Y16556D01*
X187296Y16553D01*
X188244Y17149D01*
X188247Y17157D01*
X188252Y17156D01*
X189044Y17948D01*
X189045Y17956D01*
X189051Y17956D01*
X189647Y18904D01*
X189646Y18913D01*
X189651Y18914D01*
X190021Y19971D01*
X190020Y19975D01*
X190022Y19977D01*
X190020Y19980D01*
X190024Y19982D01*
X190149Y21095D01*
X190147Y21098D01*
X190149Y21100D01*
X190149Y27100D01*
X190147Y27103D01*
X190149Y27106D01*
X190024Y28218D01*
X190018Y28224D01*
X190021Y28229D01*
X189651Y29286D01*
X189645Y29290D01*
X189647Y29296D01*
X189051Y30244D01*
X189043Y30247D01*
X189044Y30252D01*
X188252Y31044D01*
X188244Y31045D01*
X188244Y31051D01*
X187296Y31647D01*
X187287Y31646D01*
X187286Y31651D01*
X186229Y32021D01*
X186221Y32019D01*
X186218Y32024D01*
X185106Y32149D01*
X185098Y32145D01*
X185095Y32149D01*
X183982Y32024D01*
X183976Y32018D01*
X183971Y32021D01*
X182914Y31651D01*
X182910Y31645D01*
X182904Y31647D01*
X181956Y31051D01*
X181953Y31043D01*
X181948Y31044D01*
X181156Y30252D01*
X181155Y30244D01*
X181149Y30244D01*
X180553Y29296D01*
X180554Y29287D01*
X180549Y29286D01*
X180179Y28229D01*
X180181Y28221D01*
X180176Y28218D01*
X180051Y27106D01*
X180053Y27102D01*
X180051Y27100D01*
X180051Y21100D01*
X180053Y21097D01*
X180051Y21095D01*
X180176Y19982D01*
X180182Y19976D01*
X180179Y19971D01*
X180549Y18914D01*
X180556Y18910D01*
X180553Y18904D01*
X181149Y17956D01*
X181157Y17953D01*
X181156Y17948D01*
X181948Y17156D01*
X181956Y17155D01*
X181956Y17149D01*
X182904Y16553D01*
X182913Y16554D01*
X182914Y16549D01*
X183971Y16179D01*
X183979Y16181D01*
X183982Y16176D01*
X185095Y16051D01*
X185102Y16055D01*
X185106Y16051D01*
X186218Y16176D01*
G37*
G36*
X96418Y16176D02*
X96418Y16176D01*
X96424Y16182D01*
X96429Y16179D01*
X97486Y16549D01*
X97490Y16556D01*
X97496Y16553D01*
X98444Y17149D01*
X98447Y17157D01*
X98452Y17156D01*
X99244Y17948D01*
X99245Y17956D01*
X99251Y17956D01*
X99847Y18904D01*
X99846Y18913D01*
X99851Y18914D01*
X100221Y19971D01*
X100220Y19975D01*
X100222Y19977D01*
X100220Y19980D01*
X100224Y19982D01*
X100349Y21095D01*
X100347Y21098D01*
X100349Y21100D01*
X100349Y27100D01*
X100347Y27103D01*
X100349Y27106D01*
X100224Y28218D01*
X100218Y28224D01*
X100221Y28229D01*
X99851Y29286D01*
X99845Y29290D01*
X99847Y29296D01*
X99251Y30244D01*
X99243Y30247D01*
X99244Y30252D01*
X98452Y31044D01*
X98444Y31045D01*
X98444Y31051D01*
X97496Y31647D01*
X97487Y31646D01*
X97486Y31651D01*
X96429Y32021D01*
X96421Y32019D01*
X96418Y32024D01*
X95306Y32149D01*
X95298Y32145D01*
X95295Y32149D01*
X94182Y32024D01*
X94176Y32018D01*
X94171Y32021D01*
X93114Y31651D01*
X93110Y31645D01*
X93104Y31647D01*
X92156Y31051D01*
X92153Y31043D01*
X92148Y31044D01*
X91356Y30252D01*
X91355Y30244D01*
X91349Y30244D01*
X90753Y29296D01*
X90754Y29287D01*
X90749Y29286D01*
X90379Y28229D01*
X90381Y28221D01*
X90376Y28218D01*
X90251Y27106D01*
X90253Y27102D01*
X90251Y27100D01*
X90251Y21100D01*
X90253Y21097D01*
X90251Y21095D01*
X90376Y19982D01*
X90382Y19976D01*
X90379Y19971D01*
X90749Y18914D01*
X90756Y18910D01*
X90753Y18904D01*
X91349Y17956D01*
X91357Y17953D01*
X91356Y17948D01*
X92148Y17156D01*
X92156Y17155D01*
X92156Y17149D01*
X93104Y16553D01*
X93113Y16554D01*
X93114Y16549D01*
X94171Y16179D01*
X94179Y16181D01*
X94182Y16176D01*
X95295Y16051D01*
X95302Y16055D01*
X95306Y16051D01*
X96418Y16176D01*
G37*
G36*
X884718Y64176D02*
X884718Y64176D01*
X884724Y64182D01*
X884729Y64179D01*
X885786Y64549D01*
X885790Y64556D01*
X885796Y64553D01*
X886744Y65149D01*
X886747Y65157D01*
X886752Y65156D01*
X887544Y65948D01*
X887545Y65956D01*
X887551Y65956D01*
X888147Y66904D01*
X888146Y66913D01*
X888151Y66914D01*
X888521Y67971D01*
X888520Y67975D01*
X888522Y67977D01*
X888520Y67980D01*
X888524Y67982D01*
X888649Y69095D01*
X888647Y69098D01*
X888649Y69100D01*
X888649Y75100D01*
X888647Y75103D01*
X888649Y75106D01*
X888524Y76218D01*
X888518Y76224D01*
X888521Y76229D01*
X888151Y77286D01*
X888145Y77290D01*
X888147Y77296D01*
X887551Y78244D01*
X887543Y78247D01*
X887544Y78252D01*
X886752Y79044D01*
X886744Y79045D01*
X886744Y79051D01*
X885796Y79647D01*
X885787Y79646D01*
X885786Y79651D01*
X884729Y80021D01*
X884721Y80019D01*
X884718Y80024D01*
X883606Y80149D01*
X883598Y80145D01*
X883595Y80149D01*
X882482Y80024D01*
X882476Y80018D01*
X882471Y80021D01*
X881414Y79651D01*
X881410Y79645D01*
X881404Y79647D01*
X880456Y79051D01*
X880453Y79043D01*
X880448Y79044D01*
X879656Y78252D01*
X879655Y78244D01*
X879649Y78244D01*
X879053Y77296D01*
X879054Y77287D01*
X879049Y77286D01*
X878679Y76229D01*
X878681Y76221D01*
X878676Y76218D01*
X878551Y75106D01*
X878553Y75102D01*
X878551Y75100D01*
X878551Y69100D01*
X878553Y69097D01*
X878551Y69095D01*
X878676Y67982D01*
X878682Y67976D01*
X878679Y67971D01*
X879049Y66914D01*
X879056Y66910D01*
X879053Y66904D01*
X879649Y65956D01*
X879657Y65953D01*
X879656Y65948D01*
X880448Y65156D01*
X880456Y65155D01*
X880456Y65149D01*
X881404Y64553D01*
X881413Y64554D01*
X881414Y64549D01*
X882471Y64179D01*
X882479Y64181D01*
X882482Y64176D01*
X883595Y64051D01*
X883602Y64055D01*
X883606Y64051D01*
X884718Y64176D01*
G37*
G36*
X802118Y64176D02*
X802118Y64176D01*
X802124Y64182D01*
X802129Y64179D01*
X803186Y64549D01*
X803190Y64556D01*
X803196Y64553D01*
X804144Y65149D01*
X804147Y65157D01*
X804152Y65156D01*
X804944Y65948D01*
X804945Y65956D01*
X804951Y65956D01*
X805547Y66904D01*
X805546Y66913D01*
X805551Y66914D01*
X805921Y67971D01*
X805920Y67975D01*
X805922Y67977D01*
X805920Y67980D01*
X805924Y67982D01*
X806049Y69095D01*
X806047Y69098D01*
X806049Y69100D01*
X806049Y75100D01*
X806047Y75103D01*
X806049Y75106D01*
X805924Y76218D01*
X805918Y76224D01*
X805921Y76229D01*
X805551Y77286D01*
X805545Y77290D01*
X805547Y77296D01*
X804951Y78244D01*
X804943Y78247D01*
X804944Y78252D01*
X804152Y79044D01*
X804144Y79045D01*
X804144Y79051D01*
X803196Y79647D01*
X803187Y79646D01*
X803186Y79651D01*
X802129Y80021D01*
X802121Y80019D01*
X802118Y80024D01*
X801006Y80149D01*
X800998Y80145D01*
X800995Y80149D01*
X799882Y80024D01*
X799876Y80018D01*
X799871Y80021D01*
X798814Y79651D01*
X798810Y79645D01*
X798804Y79647D01*
X797856Y79051D01*
X797853Y79043D01*
X797848Y79044D01*
X797056Y78252D01*
X797055Y78244D01*
X797049Y78244D01*
X796453Y77296D01*
X796454Y77287D01*
X796449Y77286D01*
X796079Y76229D01*
X796081Y76221D01*
X796076Y76218D01*
X795951Y75106D01*
X795953Y75102D01*
X795951Y75100D01*
X795951Y69100D01*
X795953Y69097D01*
X795951Y69095D01*
X796076Y67982D01*
X796082Y67976D01*
X796079Y67971D01*
X796449Y66914D01*
X796456Y66910D01*
X796453Y66904D01*
X797049Y65956D01*
X797057Y65953D01*
X797056Y65948D01*
X797848Y65156D01*
X797856Y65155D01*
X797856Y65149D01*
X798804Y64553D01*
X798813Y64554D01*
X798814Y64549D01*
X799871Y64179D01*
X799879Y64181D01*
X799882Y64176D01*
X800995Y64051D01*
X801002Y64055D01*
X801006Y64051D01*
X802118Y64176D01*
G37*
G36*
X879803Y80203D02*
X879803Y80203D01*
X879806Y80201D01*
X880751Y80308D01*
X880757Y80313D01*
X880762Y80310D01*
X881660Y80624D01*
X881665Y80631D01*
X881670Y80629D01*
X882476Y81136D01*
X882479Y81143D01*
X882485Y81142D01*
X883158Y81815D01*
X883159Y81823D01*
X883164Y81824D01*
X883671Y82630D01*
X883670Y82638D01*
X883676Y82640D01*
X883990Y83538D01*
X883987Y83546D01*
X883992Y83549D01*
X884099Y84495D01*
X884095Y84502D01*
X884099Y84506D01*
X883992Y85451D01*
X883987Y85457D01*
X883990Y85462D01*
X883676Y86360D01*
X883669Y86365D01*
X883671Y86370D01*
X883164Y87176D01*
X883157Y87179D01*
X883158Y87185D01*
X882485Y87858D01*
X882477Y87859D01*
X882476Y87864D01*
X881670Y88371D01*
X881662Y88370D01*
X881660Y88376D01*
X880762Y88690D01*
X880754Y88687D01*
X880751Y88692D01*
X879806Y88799D01*
X879802Y88797D01*
X879800Y88799D01*
X876800Y88799D01*
X876797Y88797D01*
X876795Y88799D01*
X875849Y88692D01*
X875843Y88687D01*
X875838Y88690D01*
X874940Y88376D01*
X874935Y88369D01*
X874930Y88371D01*
X874124Y87864D01*
X874121Y87857D01*
X874115Y87858D01*
X873442Y87185D01*
X873441Y87177D01*
X873436Y87176D01*
X872929Y86370D01*
X872930Y86362D01*
X872924Y86360D01*
X872610Y85462D01*
X872613Y85454D01*
X872608Y85451D01*
X872501Y84506D01*
X872505Y84499D01*
X872504Y84499D01*
X872505Y84498D01*
X872501Y84495D01*
X872608Y83549D01*
X872613Y83543D01*
X872610Y83538D01*
X872924Y82640D01*
X872931Y82635D01*
X872929Y82630D01*
X873436Y81824D01*
X873443Y81821D01*
X873442Y81815D01*
X874115Y81142D01*
X874123Y81141D01*
X874124Y81136D01*
X874930Y80629D01*
X874938Y80630D01*
X874940Y80624D01*
X875838Y80310D01*
X875846Y80313D01*
X875849Y80308D01*
X876795Y80201D01*
X876798Y80203D01*
X876800Y80201D01*
X879800Y80201D01*
X879803Y80203D01*
G37*
G36*
X177703Y76203D02*
X177703Y76203D01*
X177706Y76201D01*
X178651Y76308D01*
X178657Y76313D01*
X178662Y76310D01*
X179560Y76624D01*
X179565Y76631D01*
X179570Y76629D01*
X180376Y77136D01*
X180379Y77143D01*
X180385Y77142D01*
X181058Y77815D01*
X181059Y77823D01*
X181064Y77824D01*
X181571Y78630D01*
X181570Y78638D01*
X181576Y78640D01*
X181890Y79538D01*
X181887Y79546D01*
X181892Y79549D01*
X181999Y80495D01*
X181995Y80502D01*
X181999Y80506D01*
X181892Y81451D01*
X181887Y81457D01*
X181890Y81462D01*
X181576Y82360D01*
X181569Y82365D01*
X181571Y82370D01*
X181064Y83176D01*
X181057Y83179D01*
X181058Y83185D01*
X180385Y83858D01*
X180377Y83859D01*
X180376Y83864D01*
X179570Y84371D01*
X179562Y84370D01*
X179560Y84376D01*
X178662Y84690D01*
X178654Y84687D01*
X178651Y84692D01*
X177706Y84799D01*
X177702Y84797D01*
X177700Y84799D01*
X174700Y84799D01*
X174697Y84797D01*
X174695Y84799D01*
X173749Y84692D01*
X173743Y84687D01*
X173738Y84690D01*
X172840Y84376D01*
X172835Y84369D01*
X172830Y84371D01*
X172024Y83864D01*
X172021Y83857D01*
X172015Y83858D01*
X171342Y83185D01*
X171341Y83177D01*
X171336Y83176D01*
X170829Y82370D01*
X170830Y82362D01*
X170824Y82360D01*
X170510Y81462D01*
X170513Y81454D01*
X170508Y81451D01*
X170401Y80506D01*
X170405Y80499D01*
X170404Y80499D01*
X170405Y80498D01*
X170401Y80495D01*
X170508Y79549D01*
X170513Y79543D01*
X170510Y79538D01*
X170824Y78640D01*
X170831Y78635D01*
X170829Y78630D01*
X171336Y77824D01*
X171343Y77821D01*
X171342Y77815D01*
X172015Y77142D01*
X172023Y77141D01*
X172024Y77136D01*
X172830Y76629D01*
X172838Y76630D01*
X172840Y76624D01*
X173738Y76310D01*
X173746Y76313D01*
X173749Y76308D01*
X174695Y76201D01*
X174698Y76203D01*
X174700Y76201D01*
X177700Y76201D01*
X177703Y76203D01*
G37*
D10*
X24000Y976000D03*
X24000Y24000D03*
X976000Y24000D03*
X976000Y976000D03*
D11*
X701100Y749500D03*
X751900Y749500D03*
X726500Y749500D03*
D12*
X567300Y832400D03*
X586300Y832400D03*
X397100Y856800D03*
X416100Y856800D03*
D11*
X778200Y843100D03*
X829000Y843100D03*
X803600Y843100D03*
X660800Y940000D03*
X711600Y940000D03*
X686200Y940000D03*
D13*
X363300Y717800D03*
X363300Y736800D03*
X457700Y608700D03*
X457700Y589700D03*
D14*
X558800Y280500D03*
X558800Y262500D03*
X894000Y279000D03*
X894000Y261000D03*
X932000Y278400D03*
X932000Y260400D03*
X970000Y279300D03*
X970000Y261300D03*
X970000Y325800D03*
X970000Y343800D03*
X932000Y324900D03*
X932000Y342900D03*
X894000Y326000D03*
X894000Y344000D03*
X858000Y325100D03*
X858000Y343100D03*
X818000Y324200D03*
X818000Y342200D03*
X780000Y325300D03*
X780000Y343300D03*
X742000Y324400D03*
X742000Y342400D03*
X596800Y281400D03*
X596800Y263400D03*
X706000Y325500D03*
X706000Y343500D03*
X668800Y326500D03*
X668800Y344500D03*
X632800Y325600D03*
X632800Y343600D03*
X596800Y326700D03*
X596800Y344700D03*
X558800Y325800D03*
X558800Y343800D03*
X514800Y326900D03*
X514800Y344900D03*
X632800Y280300D03*
X632800Y262300D03*
X668800Y279200D03*
X668800Y261200D03*
X704800Y280100D03*
X704800Y262100D03*
X742800Y281000D03*
X742800Y263000D03*
X778800Y279900D03*
X778800Y261900D03*
X816800Y278800D03*
X816800Y260800D03*
X856800Y279700D03*
X856800Y261700D03*
D15*
X346950Y636020D03*
X340450Y636020D03*
X333950Y636020D03*
X327450Y636020D03*
X320950Y636020D03*
X314450Y636020D03*
X307950Y636020D03*
X301450Y636020D03*
X294950Y636020D03*
X288450Y636020D03*
X281950Y636020D03*
X275450Y636020D03*
X275450Y694780D03*
X281950Y694780D03*
X288450Y694780D03*
X294950Y694780D03*
X301450Y694780D03*
X307950Y694780D03*
X314450Y694780D03*
X320950Y694780D03*
X327450Y694780D03*
X333950Y694780D03*
X340450Y694780D03*
X346950Y694780D03*
D16*
X367300Y791666D03*
X367300Y853134D03*
X354600Y791666D03*
X341900Y791666D03*
X354600Y853134D03*
X341900Y853134D03*
X329200Y791666D03*
X329200Y853134D03*
X316500Y791666D03*
X303800Y791666D03*
X316500Y853134D03*
X303800Y853134D03*
X291100Y791666D03*
X291100Y853134D03*
D17*
X399066Y631400D03*
X460534Y631400D03*
X399066Y644100D03*
X399066Y656800D03*
X460534Y644100D03*
X460534Y656800D03*
X399066Y669500D03*
X460534Y669500D03*
X399066Y682200D03*
X399066Y694900D03*
X460534Y682200D03*
X460534Y694900D03*
X399066Y707600D03*
X460534Y707600D03*
D18*
X168200Y74000D03*
X164200Y67000D03*
X156200Y67000D03*
X152200Y74000D03*
X148200Y67000D03*
X144200Y74000D03*
X136200Y74000D03*
X132200Y67000D03*
X128200Y74000D03*
X124200Y67000D03*
X116200Y67000D03*
X112200Y74000D03*
D19*
X176200Y80500D03*
X104200Y80500D03*
D18*
X870300Y78000D03*
X866300Y71000D03*
X858300Y71000D03*
X854300Y78000D03*
X850300Y71000D03*
X846300Y78000D03*
X838300Y78000D03*
X834300Y71000D03*
X830300Y78000D03*
X826300Y71000D03*
X818300Y71000D03*
X814300Y78000D03*
D19*
X878300Y84500D03*
X806300Y84500D03*
D20*
X647300Y515100D03*
X647300Y496100D03*
X625300Y505600D03*
X593300Y515400D03*
X593300Y496400D03*
X571300Y505900D03*
X539300Y515700D03*
X539300Y496700D03*
X517300Y506200D03*
X485300Y514000D03*
X485300Y495000D03*
X463300Y504500D03*
X431300Y514300D03*
X431300Y495300D03*
X409300Y504800D03*
X377300Y514600D03*
X377300Y495600D03*
X355300Y505100D03*
X321300Y512900D03*
X321300Y493900D03*
X299300Y503400D03*
X267300Y513200D03*
X267300Y494200D03*
X245300Y503700D03*
X213500Y511100D03*
X213500Y492100D03*
X191500Y501600D03*
X163500Y511400D03*
X163500Y492400D03*
X141500Y501900D03*
X107500Y509700D03*
X107500Y490700D03*
X85500Y500200D03*
X53500Y512000D03*
X53500Y493000D03*
X31500Y502500D03*
D11*
X432200Y978000D03*
X533800Y978000D03*
D13*
X647200Y557100D03*
X647200Y538100D03*
X593200Y557600D03*
X593200Y538600D03*
X539700Y556600D03*
X539700Y537600D03*
X485700Y558100D03*
X485700Y539100D03*
D11*
X589700Y977500D03*
X691300Y977500D03*
D13*
X432300Y557400D03*
X432300Y538400D03*
X377700Y557100D03*
X377700Y538100D03*
X321700Y556600D03*
X321700Y537600D03*
X267700Y556100D03*
X267700Y537100D03*
X213700Y555600D03*
X213700Y536600D03*
X163700Y556100D03*
X163700Y537100D03*
X106700Y555600D03*
X106700Y536600D03*
X53700Y556100D03*
X53700Y537100D03*
X559300Y227100D03*
X559300Y208100D03*
X597300Y226600D03*
X597300Y207600D03*
X633300Y226100D03*
X633300Y207100D03*
X669300Y225600D03*
X669300Y206600D03*
X705800Y224600D03*
X705800Y205600D03*
X741800Y224100D03*
X741800Y205100D03*
X779800Y223600D03*
X779800Y204600D03*
X817800Y223100D03*
X817800Y204100D03*
X855800Y222600D03*
X855800Y203600D03*
X893800Y222100D03*
X893800Y203100D03*
X931800Y221600D03*
X931800Y202600D03*
X969800Y221100D03*
X969800Y202100D03*
X970200Y379400D03*
X970200Y398400D03*
X932200Y379900D03*
X932200Y398900D03*
X894200Y380400D03*
X894200Y399400D03*
X858200Y380900D03*
X858200Y399900D03*
X818200Y381400D03*
X818200Y400400D03*
X780200Y381900D03*
X780200Y400900D03*
X742200Y382400D03*
X742200Y401400D03*
X705700Y381400D03*
X705700Y400400D03*
X667700Y381900D03*
X667700Y400900D03*
X633700Y382400D03*
X633700Y401400D03*
X597700Y382900D03*
X597700Y401900D03*
X559700Y383400D03*
X559700Y402400D03*
X513700Y381900D03*
X513700Y400900D03*
D21*
X81506Y894500D02*
X81506Y908724D01*
X36294Y908724D02*
X36294Y894500D01*
X81506Y843700D02*
X81506Y829476D01*
X36294Y829476D02*
X36294Y843700D01*
D22*
X723400Y848200D02*
X723400Y832800D01*
X698000Y832800D02*
X698000Y848200D01*
X672600Y848200D02*
X672600Y832800D01*
X197200Y917300D02*
X181800Y917300D01*
X181800Y942700D02*
X197200Y942700D01*
X197200Y968100D02*
X181800Y968100D01*
D23*
X343504Y729748D03*
X336900Y729748D03*
X330296Y729748D03*
X330296Y749052D03*
X336900Y749052D03*
X343504Y749052D03*
D24*
X515200Y768792D03*
X502500Y768792D03*
X489800Y768792D03*
X477100Y768792D03*
X464400Y768792D03*
X451700Y768792D03*
X439000Y768792D03*
X439000Y820608D03*
X451700Y820608D03*
X464400Y820608D03*
X477100Y820608D03*
X489800Y820608D03*
X502500Y820608D03*
X515200Y820608D03*
D25*
X445000Y116250D03*
X470000Y116250D03*
X490000Y116250D03*
X515000Y116250D03*
X520000Y131250D03*
X500000Y131250D03*
X480000Y131250D03*
X460000Y131250D03*
X440000Y131250D03*
D26*
X416000Y130250D02*
X416000Y117250D01*
X544000Y117250D02*
X544000Y130250D01*
X416000Y45250D02*
X416000Y32250D01*
X544000Y32250D02*
X544000Y45250D01*
D27*
X899600Y835877D02*
X899600Y851523D01*
X899600Y962877D02*
X899600Y978523D01*
D28*
X967400Y847600D03*
X967400Y915000D03*
D29*
X891800Y532600D03*
X393200Y750600D03*
X337200Y716600D03*
X391800Y879800D03*
X437600Y857800D03*
X413000Y943400D03*
X55400Y805400D03*
X55200Y793000D03*
X55200Y779200D03*
X174800Y767400D03*
X201200Y829400D03*
X935600Y928400D03*
X935600Y919200D03*
X935400Y909800D03*
X935200Y900800D03*
X81400Y580200D03*
X141600Y580200D03*
X191800Y580200D03*
X244400Y579800D03*
X299000Y579400D03*
X344200Y579400D03*
X403000Y579800D03*
X515000Y578600D03*
X572400Y577800D03*
X629000Y579400D03*
X523600Y457000D03*
X566600Y451000D03*
X591000Y446200D03*
X454400Y482200D03*
X349800Y469600D03*
X272600Y473200D03*
X177600Y473800D03*
X63200Y474400D03*
X106000Y473800D03*
X343000Y490600D03*
X594400Y721000D03*
X603000Y713800D03*
X611400Y705400D03*
X583400Y684800D03*
X812400Y532600D03*
X825800Y532400D03*
X777800Y483600D03*
X764600Y483200D03*
X392800Y143200D03*
X116000Y37400D03*
X80400Y223400D03*
X157800Y308000D03*
X196600Y306000D03*
X266400Y307800D03*
X308000Y307200D03*
X340400Y294400D03*
X194400Y104600D03*
X628600Y881400D03*
X612600Y346200D03*
X662200Y362000D03*
X689200Y361600D03*
X766600Y362000D03*
X732000Y432200D03*
X805000Y361800D03*
X843000Y362200D03*
X869200Y362200D03*
X952200Y361800D03*
X917000Y362200D03*
X986600Y361200D03*
X682800Y279800D03*
X644200Y242600D03*
X571800Y287800D03*
X587000Y246000D03*
X577400Y226200D03*
X545800Y242000D03*
X505800Y287800D03*
X508200Y230400D03*
X451200Y292400D03*
X413400Y296800D03*
X154400Y219800D03*
X176800Y198200D03*
X129800Y250200D03*
X175200Y251600D03*
X164200Y208600D03*
X504800Y254000D03*
X839200Y39400D03*
X848400Y39400D03*
X450800Y257000D03*
X398800Y260000D03*
X346000Y257200D03*
X374000Y632000D03*
X330000Y772000D03*
X184000Y722000D03*
X298000Y824000D03*
X390000Y480000D03*
X398000Y290000D03*
X338000Y764000D03*
X490000Y874000D03*
X486000Y614000D03*
X562000Y804000D03*
X560000Y882000D03*
X728000Y676000D03*
X664000Y504000D03*
X84000Y762000D03*
X134000Y762000D03*
X200000Y694000D03*
X96000Y694000D03*
X124000Y938000D03*
X390000Y738000D03*
X882600Y802600D03*
X342000Y880000D03*
X496000Y698000D03*
X538000Y876000D03*
X530000Y718000D03*
X216000Y768000D03*
X328000Y940000D03*
X484000Y678000D03*
X480000Y642000D03*
X354000Y880000D03*
X320000Y872000D03*
X404000Y780000D03*
X914000Y556000D03*
X772000Y650000D03*
X940000Y636000D03*
X370000Y684000D03*
X502000Y786000D03*
X196000Y652000D03*
X972000Y618000D03*
X380000Y658000D03*
X356000Y684000D03*
X170000Y660000D03*
X528000Y764000D03*
X434000Y676000D03*
X932000Y630000D03*
X540000Y692000D03*
X478000Y754000D03*
X342000Y810000D03*
X928000Y598000D03*
X472000Y742000D03*
X334000Y832000D03*
X342000Y976000D03*
X478000Y900000D03*
X900000Y694000D03*
X322000Y680000D03*
X122000Y662000D03*
X122000Y652000D03*
X344000Y914000D03*
X328000Y762000D03*
X232000Y702000D03*
X200000Y732000D03*
X452000Y788000D03*
X912000Y584000D03*
X978000Y592000D03*
X912000Y598000D03*
X978000Y606000D03*
X962000Y464000D03*
X296000Y650000D03*
X52000Y250000D03*
X102000Y218000D03*
X130000Y218000D03*
X480000Y246000D03*
X174000Y218000D03*
X196000Y218000D03*
X336600Y250800D03*
X370000Y244000D03*
X428000Y248000D03*
X528000Y244000D03*
X571000Y480000D03*
X377000Y54000D03*
X518000Y480000D03*
X366000Y46000D03*
X364000Y411000D03*
X355000Y40000D03*
X347000Y34000D03*
X245300Y480300D03*
X333000Y28000D03*
X141500Y480500D03*
X321000Y14000D03*
X85500Y480500D03*
X896000Y122000D03*
X786000Y122000D03*
X796000Y122000D03*
X806000Y122000D03*
X866000Y122000D03*
X816000Y122000D03*
X826000Y122000D03*
X836000Y122000D03*
X846000Y122000D03*
X856000Y122000D03*
X876000Y122000D03*
X886000Y122000D03*
X976000Y92000D03*
X708000Y112000D03*
X552000Y426000D03*
X970000Y452000D03*
X956000Y62000D03*
X928000Y452000D03*
X940000Y40000D03*
X894000Y454000D03*
X924000Y106000D03*
X664000Y436000D03*
X856000Y454000D03*
X916000Y30000D03*
X818000Y480000D03*
X908000Y112000D03*
X780000Y450000D03*
X744000Y450000D03*
X708000Y438000D03*
X748000Y104000D03*
X726000Y48000D03*
X628000Y436000D03*
X716000Y60000D03*
X590000Y426000D03*
X690000Y40000D03*
X488000Y380000D03*
X465200Y455800D03*
X468600Y237000D03*
M02*
