M48
;GenerationSoftware,Autodesk,EAGLE,9.6.2*%
;CreationDate,2023-06-04T11:22:57Z*%
FMAT,2
ICI,OFF
METRIC,TZ,000.000
T12C0.350
T11C0.400
T10C0.500
T9C0.600
T8C0.650
T7C0.700
T6C0.813
T5C1.016
T4C1.100
T3C1.118
T2C1.397
T1C2.600
%
G90
M71
T1
X2400Y97600
X2400Y2400
X97600Y2400
X97600Y97600
T2
X96740Y91500
X96740Y84760
T3
X89960Y97070
X89960Y84370
T4
X69800Y84050
X72340Y84050
X18950Y96810
X18950Y94270
X18950Y91730
X67260Y84050
T5
X3629Y83659
X8151Y83659
X3629Y90161
X8151Y90161
T6
X70110Y74950
X75190Y74950
X72650Y74950
X77820Y84310
X82900Y84310
X80360Y84310
X66080Y94000
X71160Y94000
X68620Y94000
X69130Y97750
X58970Y97750
X43220Y97800
X53380Y97800
T7
X48000Y13125
X44500Y11625
X47000Y11625
X49000Y11625
X51500Y11625
X52000Y13125
X50000Y13125
X46000Y13125
X44000Y13125
T8
X17620Y8050
X10420Y8050
X87830Y8450
X80630Y8450
T9
X41600Y12375
X54400Y12375
X41600Y3875
X54400Y3875
T10
X18510Y2410
X9530Y2410
X18150Y6810
X80100Y7210
X88360Y7210
X9890Y6810
X79740Y2810
X88720Y2810
T11
X85830Y7100
X86630Y7100
X87030Y7800
X11220Y7400
X11620Y6700
X12420Y6700
X12820Y7400
X83430Y7100
X83030Y7800
X82630Y7100
X81430Y7800
X16820Y7400
X16420Y6700
X15620Y6700
X15220Y7400
X14820Y6700
X84630Y7800
X83830Y7800
X85030Y7100
X85430Y7800
X13220Y6700
X13620Y7400
X14420Y7400
X81830Y7100
T12
X84840Y3940
X45080Y25700
X39880Y26000
X34600Y25720
X37400Y63200
X33000Y77200
X18400Y72200
X29800Y82400
X39000Y48000
X39800Y29000
X33800Y76400
X49000Y87400
X48600Y61400
X56200Y80400
X56000Y88200
X72800Y67600
X66400Y50400
X8400Y76200
X13400Y76200
X20000Y69400
X9600Y69400
X12400Y93800
X39000Y73800
X88260Y80260
X34200Y88000
X49600Y69800
X53800Y87600
X53000Y71800
X21600Y76800
X32800Y94000
X48400Y67800
X48000Y64200
X35400Y88000
X32000Y87200
X40400Y78000
X91400Y55600
X77200Y65000
X94000Y63600
X37000Y68400
X50200Y78600
X19600Y65200
X97200Y61800
X38000Y65800
X35600Y68400
X17000Y66000
X52800Y76400
X43400Y67600
X93200Y63000
X54000Y69200
X47800Y75400
X34200Y81000
X92800Y59800
X47200Y74200
X33400Y83200
X34200Y97600
X47800Y90000
X90000Y69400
X32200Y68000
X12200Y66200
X12200Y65200
X34400Y91400
X32800Y76200
X23200Y70200
X20000Y73200
X45200Y78800
X60300Y71380
X97800Y59200
X91200Y59800
X97800Y60600
X96200Y46400
X29600Y65000
X5200Y25000
X10200Y21800
X13000Y21800
X48000Y24600
X17400Y21800
X19600Y21800
X33660Y25080
X37000Y24400
X42800Y24800
X52800Y24400
X57100Y48000
X37700Y5400
X51800Y48000
X36600Y4600
X36400Y41100
X35500Y4000
X34700Y3400
X24530Y48030
X33300Y2800
X14150Y48050
X32100Y1400
X8550Y48050
X89600Y12200
X78600Y12200
X79600Y12200
X80600Y12200
X86600Y12200
X81600Y12200
X82600Y12200
X83600Y12200
X84600Y12200
X85600Y12200
X87600Y12200
X88600Y12200
X97600Y9200
X70800Y11200
X55200Y42600
X97000Y45200
X95600Y6200
X92800Y45200
X94000Y4000
X89400Y45400
X92400Y10600
X66400Y43600
X85600Y45400
X91600Y3000
X81800Y48000
X90800Y11200
X78000Y45000
X74400Y45000
X70800Y43800
X74800Y10400
X72600Y4800
X62800Y43600
X71600Y6000
X59000Y42600
X69000Y4000
X48800Y38000
X46520Y45580
X46860Y23700
X89180Y53260
X39320Y75060
X33720Y71660
X39180Y87980
X43760Y85780
X41300Y94340
X5540Y80540
X5520Y79300
X5520Y77920
X17480Y76740
X20120Y82940
X93560Y92840
X93560Y91920
X93540Y90980
X93520Y90080
X8140Y58020
X14160Y58020
X19180Y58020
X24440Y57980
X29900Y57940
X34420Y57940
X40300Y57980
X51500Y57860
X57240Y57780
X62900Y57940
X52360Y45700
X56660Y45100
X59100Y44620
X45440Y48220
X34980Y46960
X27260Y47320
X17760Y47380
X6320Y47440
X10600Y47380
X34300Y49060
X59440Y72100
X61140Y70540
X58340Y68480
X81240Y53260
X82580Y53240
X77780Y48360
X76460Y48320
X39280Y14320
X91200Y58400
X11600Y3740
X8040Y22340
X15780Y30800
X19660Y30600
X26640Y30780
X30800Y30720
X34040Y29440
X19440Y10460
X62860Y88140
X61260Y34620
X66220Y36200
X68920Y36160
X76660Y36200
X73200Y43220
X80500Y36180
X84300Y36220
X86920Y36220
X95220Y36180
X91700Y36220
X98660Y36120
X64420Y24260
X57180Y28780
X58700Y24600
X57740Y22620
X54580Y24200
X50580Y28780
X50820Y23040
X45120Y29240
X41340Y29680
X15440Y21980
X17680Y19820
X12980Y25020
X17520Y25160
X16420Y20860
X50480Y25400
X83920Y3940
M30